<?xml version="1.0" encoding="utf-8"?>
<!-- Generator: Adobe Illustrator 24.2.0, SVG Export Plug-In . SVG Version: 6.00 Build 0)  -->
<svg version="1.1" id="Layer_1" xmlns="http://www.w3.org/2000/svg" xmlns:xlink="http://www.w3.org/1999/xlink" x="0px" y="0px"
	 viewBox="0 0 1200 1200" style="enable-background:new 0 0 1200 1200;" xml:space="preserve">
<style type="text/css">
	.st0{fill:#EBEBEB;}
	.st1{fill:#CC56E8;}
	.st2{opacity:0.3;}
	.st3{fill:#C050D8;}
	.st4{fill:#AF46C1;}
	.st5{fill:#9F35AA;}
	.st6{fill:#892991;}
	.st7{fill:#2B3C4D;}
	.st8{fill:#32475B;}
	.st9{fill:none;}
	.st10{fill:#C4C4C4;}
</style>
<circle class="st0" cx="605.96" cy="600" r="574.54"/>
<g>
	<g>
		<ellipse class="st1" cx="610.83" cy="604.89" rx="496.09" ry="496.09"/>
	</g>
	<g class="st2">
		<path d="M615.75,600c-2.7-2.7-7.08-2.7-9.77,0c-2.7,2.7-2.7,7.08,0,9.77l350.56,350.56c3.3-3.21,6.56-6.47,9.77-9.77L615.75,600z"
			/>
	</g>
</g>
<g>
	<g>
		
			<ellipse transform="matrix(0.7071 -0.7071 0.7071 0.7071 -248.8131 609.0928)" class="st3" cx="610.83" cy="604.89" rx="396.86" ry="396.86"/>
	</g>
	<g class="st2">
		<path d="M615.75,600c-2.7-2.7-7.08-2.7-9.77,0c-2.7,2.7-2.7,7.08,0,9.77l280.44,280.44c3.32-3.2,6.58-6.47,9.77-9.77L615.75,600z"
			/>
	</g>
</g>
<g>
	<g>
		<ellipse class="st4" cx="610.83" cy="604.89" rx="297.65" ry="297.65"/>
	</g>
	<g class="st2">
		<path d="M615.75,600c-2.7-2.7-7.08-2.7-9.77,0c-2.7,2.7-2.7,7.08,0,9.77L816.3,820.09c3.33-3.18,6.59-6.44,9.77-9.77L615.75,600z"
			/>
	</g>
</g>
<g>
	<g>
		<ellipse class="st5" cx="610.83" cy="604.88" rx="198.43" ry="198.43"/>
	</g>
	<g class="st2">
		<path d="M615.75,600c-2.7-2.7-7.08-2.7-9.77,0c-2.7,2.7-2.7,7.08,0,9.77l140.15,140.15c3.36-3.15,6.64-6.41,9.77-9.77L615.75,600z
			"/>
	</g>
</g>
<g>
	<g>
		
			<ellipse transform="matrix(0.7071 -0.7071 0.7071 0.7071 -248.7974 609.1547)" class="st6" cx="610.92" cy="604.9" rx="99.23" ry="99.23"/>
	</g>
	<g class="st2">
		<path d="M615.75,600c-2.7-2.7-7.08-2.7-9.77,0c-2.7,2.7-2.7,7.08,0,9.77l69.93,69.93c3.49-3.03,6.74-6.3,9.77-9.77L615.75,600z"/>
	</g>
</g>
<g>
	<g>
		<g>
			<path class="st7" d="M1020.2,93.63l-7.73,7.73c-34.3,34.3-52.54,81.48-50.23,129.95l1.01,21.18l130.46-130.46l0,0
				C1091.91,84.69,1046.65,67.19,1020.2,93.63z"/>
		</g>
		<g>
			<path class="st7" d="M1122.1,195.53l-7.73,7.73c-34.3,34.3-81.48,52.54-129.95,50.23l-21.18-1.01l130.46-130.46l0,0
				C1131.04,123.82,1148.55,169.09,1122.1,195.53z"/>
		</g>
	</g>
	<g>
		<path class="st8" d="M1088.13,133.74c-1.57,0-3.15-0.6-4.35-1.8c-2.4-2.4-2.4-6.3,0-8.69l18.8-18.8c2.4-2.4,6.28-2.4,8.69,0
			c2.4,2.4,2.4,6.28,0,8.69l-18.8,18.8C1091.28,133.14,1089.71,133.74,1088.13,133.74z"/>
	</g>
	<g>
		<line class="st9" x1="610.85" y1="604.89" x2="1088.13" y2="127.6"/>
		<path class="st10" d="M610.85,611.8c-1.77,0-3.53-0.68-4.89-2.03c-2.7-2.7-2.7-7.08,0-9.77l477.29-477.29c2.7-2.7,7.08-2.7,9.77,0
			c2.7,2.7,2.7,7.08,0,9.77L615.75,609.77C614.39,611.12,612.61,611.8,610.85,611.8z"/>
	</g>
</g>
</svg>
