<?xml version="1.0" encoding="utf-8"?>
<!-- Generator: Adobe Illustrator 24.2.0, SVG Export Plug-In . SVG Version: 6.00 Build 0)  -->
<svg version="1.1" id="Layer_1" xmlns="http://www.w3.org/2000/svg" xmlns:xlink="http://www.w3.org/1999/xlink" x="0px" y="0px"
	 viewBox="0 0 1200 1200" style="enable-background:new 0 0 1200 1200;" xml:space="preserve">
<style type="text/css">
	.st0{fill:#EBEBEB;}
	.st1{fill:#0087FF;}
	.st2{fill:#1F9DFC;}
	.st3{fill:#46ADF9;}
	.st4{fill:#B9DDFF;}
	.st5{enable-background:new    ;}
	.st6{fill:#DDDDDD;}
	.st7{fill:#A8A8A8;}
	.st8{fill:#F7F7F7;}
	.st9{fill:#77267F;}
	.st10{fill:#892991;}
	.st11{fill:#C14DCE;}
	.st12{fill:#E5F1FA;}
	.st13{opacity:0.26;}
	.st14{fill:#A6A6A6;}
</style>
<circle class="st0" cx="567.88" cy="642.53" r="530.13"/>
<g>
	<path class="st1" d="M800.87,1007.32c-7.97-14.02,40.9-45.56,29.43-80.58c-6.16-18.83-26.23-27.85-24.3-48.61
		c1.23-13.56,10.67-19.3,7.66-24.3c-4.51-7.51-28.5,0.89-67.79,10.25c-68.98,16.41-84,11.71-90.82,8.94
		c-13.75-5.55-23.53-15.02-30.24-23.69c-164.96-22.53-302.2-132.19-363.86-281.05c0,0,0,0-0.04,0
		c-34.51,14.91-37.17,48.76-58.74,46.99c0,0-2.43-0.19-30.7-15.37c-3.47-31.24-7.97-38.05-11.52-38.36
		c-9.86-0.85-29.5,47.68-13.44,67.17c5.55,6.74,13.29,7.43,15.37,15.37c2.73,10.44-9.13,15.14-9.59,26.85
		c-0.77,19.1,30.12,23.53,34.55,47.95c3.04,16.83-9.63,25.88-3.85,34.55c6.93,10.4,26.46-0.54,49.88,3.85
		c30.12,5.62,36.13,30.93,84.43,80.58c16.56,17.02,32.35,33.28,55.66,49.88c54.15,38.59,87.16,35.2,95.94,59.47
		c9.51,26.31-13.4,59.97-34.55,76.76c-31.66,25.15-69.71,20.45-80.11,19.18c-5.78-0.69-11.25-1.81-16.48-3.27
		c66.75,37.44,143.7,58.81,225.66,58.81c99.18,0,191.04-31.27,266.3-84.47C814.23,1014.87,803.8,1012.48,800.87,1007.32z"/>
	<path class="st1" d="M165.28,835.89c4.24-21.61,18.91-28.08,16.29-49.88c-3.12-26.08-25.42-28.04-30.24-59.47
		c-2.47-16.1,1.96-24.84-5.28-41.75c-4.47-10.44-8.97-13.63-14.4-22.07c-12.21-19.07-12.21-38.48-12.94-55.15
		c-0.85-18.68-2.97-42.06-6.36-70.75c-7.09,32.2-10.86,65.59-10.86,99.91c0,142.66,64.67,270.19,166.31,354.92
		c-12.29-12.59-25.61-27.54-41.14-44.95C185.35,900.4,158.65,869.63,165.28,835.89z"/>
	<path class="st2" d="M615.38,739.95c14.4-17.33,34.16-16.52,42.21-37.09c4.66-11.94-3.39-17.83,1.27-28.16
		c5.85-12.9,20.49-12.98,45.41-22.38c44.02-16.64,54.08-37.44,70.98-30.7c12.48,4.97,9.13,17.1,24.3,25.57
		c23.3,13.02,58.04-0.69,58.2-8.32c0.08-4.01-9.4-5.74-8.94-9.59c0.58-4.78,15.56-3.93,32.62-10.86c8.4-3.43,27.38-11.17,31.97-27.5
		c3.7-13.1-2.39-29.85-10.86-31.97c-9.28-2.31-16.37,14.06-24.96,11.52c-7.51-2.23-12.86-18.03-8.94-30.7
		c1.19-3.85,3.12-7.01,5.43-9.71c-5.16,1.69-10.36,3.24-15.6,4.7c0.65,3.54,0.54,7.09-1.35,10.75c-4.43,8.55-12.94,7.09-14.71,14.71
		c-2.62,11.21,14.02,21.92,10.86,26.85c-1.66,2.58-7.78,2.08-12.17,0.65c-14.91-4.85-13.87-21.57-27.5-31.97
		c-15.95-12.21-39.9-6.59-40.29-3.85c-0.54,3.5,37.09,7.28,39.67,22.38c0.35,2.04,0.35,6.01-1.93,7.66
		c-3.24,2.39-9.4-1.08-13.44-3.2c-16.14-8.51-28.81-15.21-39.67-14.06c-8.32,0.89-13.87,6.36-24.96,17.26
		c-6.82,6.7-13.98,13.98-15.98,24.96c-1.39,7.59,1.23,8.4,0,14.71c-2.73,14.06-19.26,28.69-37.09,27.5
		c-2.27-0.15-13.02-0.89-20.45-9.59c-6.78-7.93-9.09-20.57-4.47-29.43c8.09-15.44,32.2-9.63,37.09-23.03
		c3.39-9.28-7.24-14.6-4.47-28.77c1.58-8.05,5.58-9.47,11.44-19.87c-64.51-14.44-121.86-47.84-165.93-94.02
		c-8.4,0.08-16.41,1.54-22.8,7.74c-11.29,10.98-5.51,25.34-16.79,30.7c-9.86,4.7-25.34-1-32.12-11.02
		c-9.78-14.52-0.31-36.55,4.81-48.45c8.59-19.95,17.41-23.42,15.37-33.09c-3-14.02-24.92-16.87-23.49-28.31
		c0.54-4.31,3.16-8.63,10.98-14.37c-1.85-4.24-3.58-8.51-5.24-12.86c-8.09,1.04-17.52,3.12-27.54,8.01
		c-6.66,3.27-25.11,12.33-26.85,26.85c-1.39,11.32,8.78,14.52,9.59,26.85c1.58,23.53-32.66,50.46-46.07,44.14
		c-1.73-0.81-3.04-2.16-7.51-12.21c-8.51-19.14-9.09-26.38-13.6-35.74c-2.23-4.66-12.67-26.46-26.85-26.85
		c-17.99-0.54-29.77,33.66-30.7,36.47c-4.7,14.06-8.13,38.13,1.93,44.14c7.28,4.39,14.02-5.39,28.77-5.74
		c26.85-0.65,47.37,30.62,53.73,40.29c12.79,19.49,24.46,49.99,15.37,57.58c-3.89,3.24-15.44-0.35-38.36-7.66
		c-23.84-7.59-30.93-11.59-36.47-7.66c-7.66,5.39-0.42,17.45-7.66,28.77c-8.97,14.02-26.69,5.97-50.61,16.29
		c61.63,148.9,198.86,258.52,363.86,281.05c-5.47-7.13-8.9-13.75-10.71-17.22C600.16,805.04,595.5,763.86,615.38,739.95z"/>
	<path class="st2" d="M422.87,210.35c-71.6,53.15-89.09,74.1-84.43,84.43c5.01,11.17,34.97,9.63,36.47,21.11
		c1.19,9.36-17.79,16.83-15.37,24.96c1.62,5.39,11.44,6.78,15.52,7.36c7.32,1.04,22.26,0.81,26.69-7.36
		c4.66-8.59-7.55-16.14-5.74-30.7c1.46-11.82,11.59-23.49,23.03-26.85c10.05-2.97,19.37,1,31.97,9.74
		c-5.74-24.34-8.78-49.72-8.78-75.8c0-8.94,0.39-17.79,1.08-26.58c-0.69,0.19-1.35,0.35-2,0.54
		C439.17,196.02,433.74,202.3,422.87,210.35z"/>
	<path class="st3" d="M450.99,293.01c5.28,3.66,11.13,8.13,17.91,13.29c12.9,9.86,22.92,17.52,21.11,23.03
		c-1.66,5.08-11.82,3.58-26.19,5.43c1.66,4.31,3.39,8.63,5.24,12.86c0.04,0,0.04-0.04,0.04-0.04c27.62-20.26,77.84-27.54,95.94-6.7
		c3.5,4.04,6.55,10.01,13.44,11.52c10.32,2.27,19.14-7.7,22.53-4.81c2.43,2.04-0.12,8.74-2.89,15.83
		c-8.28,21.18-13.13,32.16-15.83,39.32c-9.01,24.07-1.62,27.35-8.63,35.01c-9.67,10.63-25.65,6.51-40.52,6.66
		c44.06,46.18,101.41,79.57,165.93,94.02c0.42-0.77,0.89-1.62,1.35-2.5c7.55-14.64,4.39-18.76,8.94-26.85
		c11.52-20.49,39.86-8.47,56.93-28.16c12.98-14.98,13.06-40.9,2.54-56.27c-7.51-11.02-21.22-17.79-24.96-14.71
		c-3.89,3.2,6.36,14.4,5.74,33.28c-0.08,1.81-1.19,27.54-16.64,34.55c-13.33,6.05-32.31-4.24-41.56-16.64
		c-20.3-27.23-4.12-79,26.85-97.87c12.52-7.63,32.31-12.86,40.29-5.12c7.9,7.66,0.46,24.5,7.66,28.16
		c4.43,2.23,12.67-1.31,15.37-7.05c4.35-9.28-9.05-17.76-12.17-36.47c-2.7-16.25,5.74-19.72,5.12-33.28
		c-0.96-21.26-22.65-31.24-64.59-67.17c-29.89-25.57-44.83-38.36-42.87-45.41c0.89-3.2,4.47-5.85,10.09-7.97
		c-36.44-9.24-74.57-14.14-113.85-14.14c-41.56,0-81.85,5.51-120.13,15.83c-0.69,8.78-1.08,17.64-1.08,26.58
		C442.21,243.28,445.25,268.66,450.99,293.01z"/>
	<path class="st3" d="M899.35,506.5c-0.19-8.32-12.21-17.33-23.65-16.64c-9.98,0.62-18.14,8.47-21.11,16.64
		c-3.97,10.86,2.31,19.57,3.93,28.23c5.24-1.43,10.44-3,15.6-4.7C883.56,519.13,899.59,516.24,899.35,506.5z"/>
	<path class="st4" d="M1018.91,713.83c-83.93,86.2-201.21,139.77-331.01,139.77c-21.41,0-42.48-1.5-63.09-4.31
		c6.7,8.7,16.48,18.18,30.24,23.69c6.82,2.73,21.84,7.43,90.82-8.94c39.32-9.36,63.32-17.72,67.79-10.25
		c3,5.01-6.43,10.75-7.66,24.3c-1.93,20.76,18.14,29.81,24.3,48.61c11.48,35.05-37.36,66.59-29.43,80.58
		c2.93,5.16,13.37,7.59,28.89,6.89C928.16,944.62,998.15,837.58,1018.91,713.83z"/>
	<path class="st4" d="M699.11,538.43c-5.85,10.4-9.86,11.82-11.44,19.87c-2.77,14.21,7.86,19.49,4.47,28.77
		c-4.89,13.4-29,7.59-37.09,23.03c-4.62,8.86-2.31,21.45,4.47,29.43c7.43,8.74,18.22,9.44,20.45,9.59
		c17.83,1.19,34.39-13.44,37.09-27.5c1.23-6.32-1.39-7.13,0-14.71c2.04-10.98,9.17-18.22,15.98-24.96
		c11.09-10.94,16.6-16.41,24.96-17.26c10.86-1.12,23.53,5.55,39.67,14.06c4.04,2.12,10.21,5.58,13.44,3.2
		c2.27-1.66,2.27-5.62,1.93-7.66c-2.58-15.1-40.17-18.87-39.67-22.38c0.42-2.73,24.34-8.36,40.29,3.85
		c13.63,10.44,12.59,27.12,27.5,31.97c4.39,1.43,10.51,1.93,12.17-0.65c3.16-4.93-13.48-15.68-10.86-26.85
		c1.77-7.63,10.28-6.16,14.71-14.71c1.93-3.7,2.04-7.2,1.35-10.75c-27.73,7.59-56.93,11.67-87.08,11.67
		C746.56,546.4,722.37,543.63,699.11,538.43z"/>
	<path class="st4" d="M991.25,462.25c-33.55,30.12-73.3,53.42-117.13,67.79c-2.31,2.7-4.24,5.82-5.43,9.71
		c-3.89,12.67,1.43,28.46,8.94,30.7c8.55,2.54,15.68-13.83,24.96-11.52c8.47,2.12,14.56,18.87,10.86,31.97
		c-4.62,16.33-23.61,24.07-31.97,27.5c-17.06,6.97-32.05,6.09-32.62,10.86c-0.46,3.85,9.05,5.58,8.94,9.59
		c-0.19,7.63-34.9,21.3-58.2,8.32c-15.18-8.47-11.82-20.61-24.3-25.57c-16.91-6.74-26.96,14.06-70.98,30.7
		c-24.96,9.44-39.56,9.47-45.41,22.38c-4.66,10.28,3.39,16.22-1.27,28.16c-8.05,20.61-27.81,19.76-42.21,37.09
		c-19.87,23.88-15.21,65.05-1.27,92.09c1.81,3.5,5.24,10.09,10.71,17.22c20.64,2.81,41.71,4.31,63.09,4.31
		c129.8,0,247.08-53.58,331.01-139.77c4.2-25.07,6.43-50.8,6.43-77.07C1025.38,574.98,1013.21,516.09,991.25,462.25z"/>
	<path class="st4" d="M667.18,196.95c-1.96,7.05,12.98,19.84,42.87,45.41c41.98,35.9,63.63,45.91,64.59,67.17
		c0.62,13.56-7.82,17.02-5.12,33.28c3.12,18.72,16.48,27.19,12.17,36.47c-2.7,5.7-10.94,9.24-15.37,7.05
		c-7.2-3.62,0.23-20.45-7.66-28.16c-7.97-7.74-27.81-2.5-40.29,5.12c-30.97,18.87-47.14,70.6-26.85,97.87
		c9.24,12.4,28.23,22.69,41.56,16.64c15.44-6.97,16.56-32.74,16.64-34.55c0.62-18.83-9.63-30.04-5.74-33.28
		c3.74-3.08,17.45,3.7,24.96,14.71c10.51,15.41,10.44,41.33-2.54,56.27c-17.06,19.68-45.41,7.66-56.93,28.16
		c-4.54,8.09-1.43,12.25-8.94,26.85c-0.46,0.89-0.92,1.73-1.35,2.5c23.26,5.2,47.49,7.97,72.33,7.97c30.16,0,59.35-4.08,87.08-11.67
		c-1.62-8.67-7.86-17.37-3.93-28.23c2.97-8.17,11.13-16.02,21.11-16.64c11.48-0.69,23.46,8.32,23.65,16.64
		c0.23,9.74-15.79,12.63-25.27,23.57c43.83-14.37,83.58-37.71,117.13-67.79c-54.85-134.34-171.13-237.1-313.94-273.31
		C671.65,191.05,668.1,193.71,667.18,196.95z"/>
	<path class="st4" d="M337.75,1039.83c-24.8-13.94-48.22-30.08-69.94-48.18C292.5,1016.99,312.8,1032.82,337.75,1039.83z"/>
	<path class="st4" d="M434.39,1023.92c21.11-16.79,44.06-50.46,34.55-76.76c-8.78-24.27-41.79-20.88-95.94-59.47
		c-23.3-16.6-39.09-32.85-55.66-49.88c-48.3-49.69-54.31-74.95-84.43-80.58c-23.42-4.39-42.95,6.55-49.88-3.85
		c-5.78-8.67,6.89-17.72,3.85-34.55c-4.43-24.42-35.28-28.89-34.55-47.95c0.46-11.71,12.33-16.45,9.59-26.85
		c-2.08-7.9-9.78-8.63-15.37-15.37c-16.06-19.49,3.58-68.02,13.44-67.17c3.54,0.31,8.05,7.13,11.52,38.36
		c28.27,15.14,30.7,15.37,30.7,15.37c21.57,1.77,24.27-32.08,58.74-46.99c0,0,0,0,0.04,0c-22.53-54.38-34.97-114.01-34.97-176.56
		c0-26.27,2.23-52,6.43-77.07C173.64,375.05,131.23,451.5,112.4,536.85c3.35,28.69,5.51,52.07,6.36,70.75
		c0.73,16.68,0.73,36.13,12.94,55.15c5.39,8.43,9.9,11.63,14.4,22.07c7.24,16.91,2.81,25.65,5.28,41.75
		c4.81,31.43,27.12,33.43,30.24,59.47c2.58,21.8-12.09,28.31-16.29,49.88c-6.62,33.74,20.07,64.51,61.39,110.81
		c15.52,17.41,28.89,32.35,41.14,44.95c21.72,18.1,45.14,34.24,69.94,48.18c5.28,1.5,10.75,2.58,16.48,3.27
		C364.64,1044.41,402.73,1049.07,434.39,1023.92z"/>
	<path class="st4" d="M311.56,551.91c7.28-11.36,0-23.38,7.66-28.77c5.55-3.89,12.63,0.08,36.47,7.66
		c22.96,7.32,34.51,10.9,38.36,7.66c9.09-7.59-2.58-38.09-15.37-57.58c-6.36-9.67-26.88-40.94-53.73-40.29
		c-14.75,0.35-21.49,10.13-28.77,5.74c-10.01-6.01-6.62-30.08-1.93-44.14c0.92-2.81,12.71-36.98,30.7-36.47
		c14.17,0.42,24.61,22.19,26.85,26.85c4.51,9.36,5.05,16.6,13.6,35.74c4.47,10.05,5.78,11.4,7.51,12.21
		c13.4,6.32,47.61-20.61,46.07-44.14c-0.81-12.36-10.98-15.52-9.59-26.85c1.77-14.52,20.22-23.61,26.85-26.85
		c10.01-4.93,19.45-7.01,27.54-8.01c-5.16-13.52-9.47-27.42-12.83-41.75c-12.63-8.7-21.92-12.71-31.97-9.74
		c-11.44,3.39-21.57,15.02-23.03,26.85c-1.81,14.56,10.4,22.15,5.74,30.7c-4.43,8.17-19.37,8.4-26.69,7.36
		c-4.08-0.58-13.87-1.96-15.52-7.36c-2.47-8.13,16.56-15.6,15.37-24.96c-1.46-11.48-31.43-9.94-36.47-21.11
		c-4.66-10.36,12.86-31.27,84.43-84.43c10.86-8.05,16.29-14.33,18.41-19.18c-80.46,22.15-152.18,65.4-208.76,123.52
		c-4.2,25.07-6.43,50.8-6.43,77.07c0,62.55,12.44,122.13,34.97,176.56C284.87,557.88,302.59,565.93,311.56,551.91z"/>
	<path class="st4" d="M490.01,329.33c1.81-5.51-8.2-13.17-21.11-23.03c-6.78-5.16-12.63-9.63-17.91-13.29
		c3.35,14.29,7.66,28.23,12.83,41.75C478.22,332.91,488.35,334.41,490.01,329.33z"/>
	<path class="st4" d="M458.12,361.95c-1.43,11.44,20.53,14.29,23.49,28.31c2.08,9.71-6.78,13.13-15.37,33.09
		c-5.12,11.9-14.6,33.93-4.81,48.45c6.78,10.05,22.26,15.71,32.12,11.02c11.29-5.35,5.51-19.72,16.79-30.7
		c6.36-6.2,14.4-7.63,22.8-7.74c-26.73-28-48.53-60.74-64.09-96.79C461.27,353.32,458.65,357.64,458.12,361.95z"/>
	<path class="st4" d="M573.7,437.75c7.01-7.7-0.39-10.94,8.63-35.01c2.7-7.16,7.55-18.18,15.83-39.32
		c2.77-7.09,5.32-13.79,2.89-15.83c-3.43-2.89-12.21,7.05-22.53,4.81c-6.89-1.5-9.9-7.47-13.44-11.52
		c-18.1-20.84-68.33-13.52-95.94,6.7c-0.04,0-0.04,0.04-0.04,0.04c15.56,36.05,37.4,68.79,64.09,96.79
		C548.05,444.26,564.03,448.34,573.7,437.75z"/>
</g>
<g>
	<g>
		<g>
			<g class="st5">
				<g>
					<polygon class="st6" points="676.46,181.31 670.11,241.16 611.41,247.63 617.76,187.78 					"/>
				</g>
				<g>
					<polygon class="st7" points="611.41,247.63 576.51,215.74 582.87,155.89 617.76,187.78 					"/>
				</g>
				<g>
					<polygon class="st8" points="617.76,187.78 582.87,155.89 641.57,149.42 676.46,181.31 					"/>
				</g>
			</g>
		</g>
		<g>
			<polygon class="st9" points="656.24,183.66 649.89,243.51 635.4,244.86 641.76,185.01 			"/>
		</g>
		<g>
			<polygon class="st9" points="596.47,234.27 588.53,226.87 594.89,166.98 602.82,174.42 			"/>
		</g>
		<g>
			<polygon class="st10" points="603.36,174.95 594.89,167.25 653.62,160.78 662.06,168.48 			"/>
		</g>
		<g>
			<polygon class="st10" points="641.95,184.81 607.06,152.92 621.08,151.65 655.93,183.54 			"/>
		</g>
	</g>
	<g>
		<g>
			<path class="st11" d="M645.11,20.47c-37.4-2.58-69.1,14.64-70.75,38.52c-0.12,1.58-0.08,3.16,0.08,4.74
				c7.9-22.42,28-38.71,51.88-41.48c3.81-0.46,7.74-0.54,11.71-0.27c1.77,0.12,3.47,0.31,5.2,0.58c1.73-0.04,3.47,0.04,5.2,0.15
				c4.16,0.27,8.2,0.96,12.09,2.04c25.23,6.82,43.79,28.81,46.14,54.96c1.81-3.54,2.93-7.32,3.2-11.29
				C711.51,44.5,682.51,23.05,645.11,20.47z"/>
			<path class="st10" d="M643.22,22.51c-1.69-0.27-3.43-0.46-5.2-0.58c-3.97-0.27-7.9-0.15-11.71,0.27
				c2.54,0.23,5.01,0.62,7.43,1.16C636.83,22.82,639.99,22.55,643.22,22.51z"/>
			<path class="st10" d="M660.52,24.67c-3.89-1.04-7.93-1.73-12.09-2.04c-1.77-0.12-3.5-0.15-5.2-0.15
				c3.58,0.54,7.05,1.39,10.36,2.5C655.86,24.74,658.17,24.67,660.52,24.67z"/>
			<path class="st11" d="M653.58,24.97c-3.31-1.12-6.78-1.96-10.36-2.5c0,0,2.04,0.73,4.85,3.31
				C649.89,25.44,651.74,25.17,653.58,24.97z"/>
			<path class="st11" d="M638.64,24.63c2.77-1.73,4.54-2.12,4.54-2.12c-3.24,0.04-6.39,0.35-9.47,0.85
				C635.4,23.7,637.02,24.13,638.64,24.63z"/>
			<path class="st10" d="M660.52,24.67c-2.35-0.04-4.66,0.08-6.93,0.31c26.54,8.86,44.79,34.74,42.75,63.94
				c-0.08,1.08-0.19,2.2-0.31,3.27c4.62-3.66,8.24-7.9,10.63-12.56C704.31,53.48,685.74,31.48,660.52,24.67z"/>
			<path class="st11" d="M653.58,24.97c-1.85,0.19-3.7,0.46-5.51,0.81c1.31,1.19,2.77,2.77,4.31,4.85
				c19.8,11.71,32.39,33.93,30.7,58.43c-0.27,4.01-0.92,7.9-1.93,11.67c5.62-2.31,10.67-5.2,14.87-8.55
				c0.12-1.08,0.23-2.16,0.31-3.27C698.38,59.75,680.12,33.83,653.58,24.97z"/>
			<path class="st10" d="M633.71,23.36c-2.43-0.54-4.89-0.92-7.43-1.16c-23.88,2.81-43.99,19.1-51.88,41.48
				c0.58,5.97,3.04,11.67,7.01,16.91C583.64,51.2,605.82,27.98,633.71,23.36z"/>
			<path class="st11" d="M630.63,31.94c3-3.66,5.82-5.93,8.01-7.32c-1.62-0.5-3.27-0.92-4.93-1.27
				c-27.92,4.66-50.07,27.85-52.27,57.27c3.97,5.24,9.47,9.98,16.1,13.94c-0.42-3.74-0.5-7.55-0.23-11.44
				C598.89,60.64,612.1,41.77,630.63,31.94z"/>
			<path class="st11" d="M652.39,30.67c7.16,9.78,15.41,30.62,12.4,73.87c-0.04,0.31-0.04,0.65-0.08,0.96
				c5.89-1.08,11.44-2.7,16.45-4.78c1-3.74,1.62-7.63,1.93-11.67C684.78,64.57,672.19,42.38,652.39,30.67z"/>
			<path class="st11" d="M597.31,83.13c-0.27,3.89-0.19,7.7,0.23,11.44c3.93,2.35,8.28,4.43,12.94,6.2
				c2.73-39.36,12.13-59.08,20.14-68.83C612.1,41.77,598.89,60.64,597.31,83.13z"/>
			<path class="st10" d="M642.95,26.09l0.23-3.58c0,0-1.81,0.39-4.54,2.12C640.1,25.05,641.57,25.55,642.95,26.09z"/>
			<path class="st10" d="M638.64,24.63c-2.2,1.39-5.01,3.66-8.01,7.32c3.85-2.04,7.97-3.7,12.25-4.93l0.08-0.92
				C641.57,25.55,640.1,25.05,638.64,24.63z"/>
			<path class="st10" d="M642.92,27.01c-4.28,1.19-8.4,2.85-12.25,4.93c-8.01,9.78-17.41,29.46-20.14,68.83
				c8.09,3.08,17.18,5.16,26.85,5.97L642.92,27.01z"/>
			<path class="st10" d="M644.34,26.63c1.23-0.31,2.5-0.58,3.74-0.85c-2.85-2.58-4.85-3.31-4.85-3.31l-0.23,3.58
				C643.42,26.28,643.88,26.44,644.34,26.63z"/>
			<path class="st10" d="M652.39,30.67c-1.54-2.08-3-3.66-4.31-4.85c-1.27,0.23-2.5,0.54-3.74,0.85
				C647.15,27.79,649.85,29.13,652.39,30.67z"/>
			<path class="st10" d="M642.92,27.01c0.46-0.12,0.96-0.27,1.43-0.39c-0.46-0.19-0.92-0.39-1.39-0.54L642.92,27.01z"/>
			<path class="st10" d="M652.39,30.67c-2.58-1.54-5.28-2.89-8.09-4.04c-0.46,0.12-0.96,0.27-1.43,0.39l-5.55,79.73
				c0.58,0.04,1.16,0.08,1.73,0.15c8.97,0.62,17.64,0.12,25.61-1.39c0.04-0.31,0.04-0.65,0.08-0.96
				C667.8,61.26,659.55,40.42,652.39,30.67z"/>
		</g>
		<g>
			<path class="st12" d="M619.96,165.67c-0.15,0-0.31-0.08-0.39-0.23l-38.48-84.7c-0.08-0.19,0-0.42,0.19-0.5
				c0.19-0.08,0.42,0,0.5,0.19l38.48,84.7c0.08,0.19,0,0.42-0.19,0.5C620.04,165.67,620,165.67,619.96,165.67z"/>
		</g>
		<g>
			<path class="st12" d="M619.96,165.67c-0.19,0-0.39-0.12-0.42-0.35l-9.4-64.51c-0.04-0.23,0.12-0.42,0.35-0.46
				c0.23-0.04,0.42,0.12,0.46,0.35l9.4,64.51C620.34,165.44,620.19,165.63,619.96,165.67L619.96,165.67z"/>
		</g>
		<g>
			<path class="st12" d="M634.67,165.67c-0.08,0-0.15,0-0.19-0.04c-0.19-0.12-0.27-0.35-0.19-0.54l30.08-59.78
				c0.12-0.19,0.35-0.27,0.54-0.19c0.19,0.12,0.27,0.35,0.19,0.54l-30.08,59.78C634.94,165.6,634.83,165.67,634.67,165.67z"/>
		</g>
		<g>
			<path class="st12" d="M634.67,165.67c-0.12,0-0.19-0.04-0.27-0.08c-0.15-0.15-0.19-0.39-0.04-0.54l61.36-73.1
				c0.15-0.15,0.39-0.19,0.54-0.04c0.15,0.15,0.19,0.39,0.04,0.54l-61.36,73.1C634.9,165.63,634.79,165.67,634.67,165.67z"/>
		</g>
	</g>
</g>
<g class="st13">
	<polygon class="st14" points="262.22,546.33 202.22,523.6 234.57,455.58 294.58,478.31 	"/>
</g>
<g>
	<g>
		<g>
			<g class="st5">
				<g>
					<polygon class="st6" points="273.09,374.39 295.08,453.12 224.25,490.71 202.22,412.02 					"/>
				</g>
				<g>
					<polygon class="st7" points="224.25,490.71 164.24,467.98 142.21,389.26 202.22,412.02 					"/>
				</g>
				<g>
					<polygon class="st8" points="202.22,412.02 142.21,389.26 213.08,351.63 273.09,374.39 					"/>
				</g>
			</g>
		</g>
		<g>
			<polygon class="st9" points="248.74,387.49 270.74,466.21 253.13,475.19 231.14,396.46 			"/>
		</g>
		<g>
			<polygon class="st9" points="198.71,481.35 185,475.96 162.97,397.23 176.72,402.62 			"/>
		</g>
		<g>
			<polygon class="st10" points="177.64,403.08 163.08,397.58 233.95,359.99 248.47,365.45 			"/>
		</g>
		<g>
			<polygon class="st10" points="231.3,396.11 171.29,373.39 188.31,364.76 248.32,387.52 			"/>
		</g>
	</g>
	<g>
		<g>
			<path class="st11" d="M152.84,187.13c-48.53,15.48-79.84,53.15-69.98,84.08c0.65,2.04,1.5,4.04,2.47,5.93
				c-1.27-32.24,15.95-62.9,44.64-78.38c4.58-2.47,9.51-4.58,14.67-6.24c2.27-0.73,4.54-1.35,6.86-1.89
				c2.16-0.89,4.39-1.69,6.66-2.43c5.39-1.73,10.86-2.89,16.25-3.5c35.24-4.04,69.71,14.37,85.78,46.26
				c0.5-5.35,0.04-10.71-1.62-15.83C248.7,184.2,201.37,171.64,152.84,187.13z"/>
			<path class="st10" d="M151.49,190.67c-2.27,0.54-4.58,1.16-6.86,1.89c-5.16,1.66-10.05,3.74-14.67,6.24
				c3.31-0.96,6.62-1.73,9.94-2.27C143.59,194.29,147.45,192.33,151.49,190.67z"/>
			<path class="st10" d="M174.41,184.74c-5.43,0.62-10.86,1.77-16.25,3.5c-2.27,0.73-4.51,1.54-6.66,2.43
				c4.78-1.12,9.55-1.77,14.33-2.04C168.59,187.16,171.44,185.89,174.41,184.74z"/>
			<path class="st11" d="M165.82,188.63c-4.78,0.27-9.55,0.96-14.33,2.04c0,0,2.93-0.12,7.82,1.73
				C161.39,191.05,163.58,189.78,165.82,188.63z"/>
			<path class="st11" d="M146.79,195.64c2.62-3.58,4.7-4.97,4.7-4.97c-4.04,1.66-7.9,3.62-11.55,5.82
				C142.21,196.1,144.52,195.83,146.79,195.64z"/>
			<path class="st10" d="M174.41,184.74c-2.97,1.16-5.85,2.43-8.59,3.89c37.9-2.16,73.95,21.38,86.04,59.24
				c0.46,1.43,0.85,2.85,1.23,4.28c3.97-6.93,6.43-14.1,7.13-21.18C244.12,199.1,209.69,180.66,174.41,184.74z"/>
			<path class="st11" d="M165.82,188.63c-2.23,1.16-4.43,2.43-6.51,3.77c2.23,0.85,4.93,2.12,7.9,3.97
				c30.85,4.85,57.89,26.58,68.02,58.35c1.66,5.2,2.77,10.44,3.43,15.68c5.97-5.74,10.82-11.9,14.44-18.22
				c-0.39-1.43-0.77-2.85-1.23-4.28C239.77,210,203.72,186.47,165.82,188.63z"/>
			<path class="st10" d="M139.94,196.49c-3.31,0.54-6.62,1.31-9.94,2.27c-28.73,15.48-45.95,46.14-44.64,78.38
				c3.74,7.2,9.71,13.21,17.33,17.83C90.71,256.76,107.04,216.36,139.94,196.49z"/>
			<path class="st11" d="M140.36,208.89c1.96-6.12,4.35-10.4,6.43-13.25c-2.27,0.19-4.58,0.46-6.86,0.85
				c-32.89,19.87-49.22,60.28-37.24,98.49c7.66,4.62,16.95,7.86,27.35,9.55c-2.39-4.51-4.43-9.28-6.05-14.33
				C114.67,261.04,121.87,230.57,140.36,208.89z"/>
			<path class="st11" d="M167.17,196.37c13.9,8.74,34.78,30.89,52.69,87.01c0.15,0.42,0.27,0.85,0.39,1.27
				c6.89-4.35,13.06-9.13,18.37-14.29c-0.65-5.24-1.77-10.48-3.43-15.68C225.06,222.91,198.02,201.22,167.17,196.37z"/>
			<path class="st11" d="M123.99,290.19c1.62,5.05,3.62,9.82,6.05,14.33c6.16,1,12.67,1.46,19.45,1.35
				c-16.29-51.07-14.33-80.61-9.09-96.98C121.87,230.57,114.67,261.04,123.99,290.19z"/>
			<path class="st10" d="M152.99,195.33l-1.5-4.66c0,0-2.08,1.39-4.7,4.97C148.87,195.45,150.91,195.37,152.99,195.33z"/>
			<path class="st10" d="M146.79,195.64c-2.08,2.85-4.47,7.13-6.43,13.25c3.85-4.54,8.2-8.67,13.02-12.33l-0.39-1.19
				C150.91,195.37,148.87,195.45,146.79,195.64z"/>
			<path class="st10" d="M153.38,196.52c-4.78,3.66-9.13,7.82-13.02,12.33c-5.24,16.37-7.2,45.91,9.09,96.98
				c11.75-0.19,24.27-2.12,36.9-5.93L153.38,196.52z"/>
			<path class="st10" d="M155,195.33c1.39-1.04,2.85-2,4.31-2.93c-4.85-1.81-7.82-1.73-7.82-1.73l1.5,4.66
				C153.65,195.33,154.3,195.33,155,195.33z"/>
			<path class="st10" d="M167.17,196.37c-2.97-1.89-5.66-3.12-7.9-3.97c-1.46,0.92-2.93,1.93-4.31,2.93
				C159.08,195.37,163.16,195.71,167.17,196.37z"/>
			<path class="st10" d="M153.38,196.52c0.54-0.42,1.08-0.81,1.62-1.19c-0.65,0-1.35,0-2,0L153.38,196.52z"/>
			<path class="st10" d="M167.17,196.37c-4.01-0.62-8.09-1-12.21-1.04c-0.54,0.39-1.08,0.81-1.62,1.19l33.01,103.42
				c0.73-0.23,1.5-0.46,2.23-0.69c11.67-3.74,22.3-8.7,31.66-14.6c-0.12-0.42-0.27-0.85-0.39-1.27
				C201.95,227.26,181.11,205.11,167.17,196.37z"/>
		</g>
		<g>
			<path class="st12" d="M193.93,383.02c-0.19,0.08-0.42,0.08-0.62-0.08l-91.01-87.59c-0.23-0.19-0.23-0.54,0-0.77
				c0.19-0.23,0.54-0.23,0.77,0l91.01,87.59c0.23,0.19,0.23,0.54,0,0.77C194.05,382.98,193.97,383.02,193.93,383.02z"/>
		</g>
		<g>
			<path class="st12" d="M193.93,383.02c-0.23,0.12-0.54,0.04-0.69-0.23l-44.22-76.65c-0.15-0.27-0.08-0.58,0.19-0.73
				c0.27-0.15,0.58-0.08,0.73,0.19l44.22,76.69C194.32,382.56,194.2,382.86,193.93,383.02L193.93,383.02z"/>
		</g>
		<g>
			<path class="st12" d="M212.54,375.62c-0.08,0.04-0.19,0.08-0.27,0.04c-0.31-0.04-0.5-0.27-0.5-0.58l7.97-90.51
				c0.04-0.31,0.27-0.5,0.58-0.5c0.31,0.04,0.5,0.27,0.5,0.58l-7.97,90.51C212.81,375.39,212.69,375.55,212.54,375.62z"/>
		</g>
		<g>
			<path class="st12" d="M212.54,375.62c-0.12,0.08-0.27,0.08-0.39,0.04c-0.27-0.08-0.42-0.39-0.35-0.65l40.79-123.02
				c0.08-0.27,0.39-0.42,0.65-0.35c0.27,0.08,0.42,0.39,0.35,0.65l-40.79,123.02C212.77,375.47,212.65,375.58,212.54,375.62z"/>
		</g>
	</g>
</g>
<g class="st13">
	<polygon class="st14" points="622.58,305.37 587.68,273.48 646.42,267.01 681.28,298.9 	"/>
</g>
<g class="st13">
	<polygon class="st14" points="632.59,852.68 626.66,734.55 744.83,735.63 750.76,853.8 	"/>
</g>
<g class="st13">
	<polygon class="st14" points="984.28,676.62 982.28,603.1 1013.71,611.84 1015.75,685.37 	"/>
</g>
<g>
	<g>
		<g>
			<g class="st5">
				<g>
					<polygon class="st6" points="850.63,697.12 807.38,809.47 690.6,791.59 733.81,679.24 					"/>
				</g>
				<g>
					<polygon class="st7" points="690.6,791.59 639.68,711.94 682.89,599.55 733.81,679.24 					"/>
				</g>
				<g>
					<polygon class="st8" points="733.81,679.24 682.89,599.55 799.71,617.43 850.63,697.12 					"/>
				</g>
			</g>
		</g>
		<g>
			<polygon class="st9" points="810.31,691.18 767.05,803.57 738.4,798.64 781.65,686.29 			"/>
		</g>
		<g>
			<polygon class="st9" points="668.64,758.09 657.17,739.64 700.42,627.29 711.9,645.7 			"/>
		</g>
		<g>
			<polygon class="st10" points="712.59,647.04 700.27,627.79 817.05,645.66 829.41,664.92 			"/>
		</g>
		<g>
			<polygon class="st10" points="782.15,686.06 731.23,606.37 758.93,611.19 809.84,690.84 			"/>
		</g>
	</g>
	<g>
		<g>
			<path class="st11" d="M873.24,370.11c-70.95-24.38-141.08-7.43-156.64,37.82c-1.04,3-1.81,6.09-2.31,9.17
				c26.85-39.21,74.14-60.28,121.71-53.34c7.63,1.12,15.25,2.93,22.8,5.55c3.31,1.16,6.55,2.43,9.74,3.81
				c3.35,0.85,6.7,1.85,10.01,2.97c7.9,2.7,15.33,6.12,22.3,10.17c45.22,26.23,69.71,78.3,60.7,130.07
				c5.35-5.89,9.44-12.59,12.02-20.11C989.1,450.96,944.19,394.5,873.24,370.11z"/>
			<path class="st10" d="M868.54,373.08c-3.16-1.39-6.39-2.66-9.74-3.81c-7.55-2.58-15.18-4.43-22.8-5.55
				c4.78,1.77,9.36,3.77,13.75,6.05C856.02,370.42,862.3,371.5,868.54,373.08z"/>
			<path class="st10" d="M900.86,386.25c-6.97-4.04-14.41-7.47-22.3-10.17c-3.31-1.16-6.66-2.12-10.01-2.97
				c6.62,2.89,12.86,6.32,18.72,10.17C891.81,383.98,896.35,384.98,900.86,386.25z"/>
			<path class="st11" d="M887.26,383.25c-5.85-3.85-12.13-7.28-18.72-10.17c0,0,3.54,2.46,7.7,8.9
				C879.9,382.25,883.6,382.67,887.26,383.25z"/>
			<path class="st11" d="M858.64,374.81c6.24-1.96,9.9-1.73,9.9-1.73c-6.24-1.58-12.52-2.66-18.76-3.27
				C852.83,371.39,855.75,373.04,858.64,374.81z"/>
			<path class="st10" d="M900.86,386.25c-4.51-1.27-9.05-2.23-13.6-2.97c46.68,30.81,68.56,90.32,49.53,145.67
				c-0.73,2.08-1.5,4.12-2.31,6.16c10.82-4.7,19.99-11.02,27.04-18.76C970.57,464.56,946.07,412.44,900.86,386.25z"/>
			<path class="st11" d="M887.26,383.25c-3.66-0.58-7.36-1-11.02-1.27c1.93,2.97,3.97,6.82,5.82,11.63
				c32.16,32.89,45.03,82.27,29.04,128.76c-2.62,7.59-5.89,14.79-9.74,21.53c12.09-1.54,23.26-4.54,33.12-8.82
				c0.81-2,1.58-4.08,2.31-6.16C955.82,473.61,933.98,414.06,887.26,383.25z"/>
			<path class="st10" d="M849.78,369.81c-4.43-2.27-9.01-4.28-13.75-6.05c-47.57-6.93-94.86,14.14-121.71,53.34
				c-1.93,11.79-0.15,24.15,4.81,36.32C738.63,397.69,793.44,364.34,849.78,369.81z"/>
			<path class="st11" d="M839.39,384.83c7.7-5.51,14.29-8.44,19.26-10.01c-2.85-1.77-5.82-3.47-8.86-5.01
				c-56.35-5.47-111.16,27.89-130.65,83.58c4.97,12.17,13.13,24.19,23.92,35.32c1.12-7.43,2.93-14.87,5.47-22.22
				C763.16,423.88,798.44,394.19,839.39,384.83z"/>
			<path class="st11" d="M882.1,393.61c8.74,22.57,13.9,67.09-14.29,149.17c-0.23,0.62-0.42,1.23-0.65,1.85
				c11.94,0.92,23.46,0.69,34.24-0.73c3.85-6.74,7.13-13.94,9.74-21.53C927.09,475.92,914.26,426.5,882.1,393.61z"/>
			<path class="st11" d="M748.53,466.48c-2.54,7.36-4.35,14.79-5.47,22.22c6.39,6.59,13.67,12.86,21.8,18.68
				c25.65-74.68,54-107.84,74.53-122.6C798.44,394.19,763.16,423.88,748.53,466.48z"/>
			<path class="st10" d="M866.19,379.9l2.35-6.82c0,0-3.66-0.23-9.9,1.73C861.22,376.43,863.77,378.13,866.19,379.9z"/>
			<path class="st10" d="M858.64,374.81c-4.97,1.54-11.55,4.47-19.26,10.01c8.55-1.96,17.33-3.04,26.23-3.16l0.62-1.77
				C863.77,378.13,861.22,376.43,858.64,374.81z"/>
			<path class="st10" d="M865.61,381.67c-8.9,0.12-17.68,1.19-26.23,3.16c-20.57,14.75-48.88,47.91-74.53,122.6
				c14.06,10.09,30.5,18.83,48.8,25.46L865.61,381.67z"/>
			<path class="st10" d="M868.58,381.67c2.54,0.04,5.12,0.15,7.66,0.31c-4.16-6.43-7.7-8.9-7.7-8.9l-2.35,6.82
				C867,380.48,867.81,381.05,868.58,381.67z"/>
			<path class="st10" d="M882.1,393.61c-1.89-4.85-3.93-8.67-5.82-11.63c-2.58-0.19-5.12-0.31-7.66-0.31
				C873.39,385.33,877.9,389.33,882.1,393.61z"/>
			<path class="st10" d="M865.61,381.67c1,0,1.96-0.04,2.97,0c-0.77-0.58-1.58-1.19-2.35-1.77L865.61,381.67z"/>
			<path class="st10" d="M882.1,393.61c-4.2-4.28-8.7-8.28-13.52-11.98c-1,0-2,0-2.97,0l-51.96,151.21
				c1.08,0.39,2.16,0.77,3.27,1.16c17.02,5.85,34.05,9.32,50.22,10.59c0.23-0.62,0.42-1.23,0.65-1.85
				C896,460.7,890.84,416.22,882.1,393.61z"/>
		</g>
		<g>
			<path class="st12" d="M749.49,637.69c-0.31-0.08-0.58-0.31-0.62-0.65l-30.5-183.53c-0.08-0.42,0.23-0.85,0.65-0.89
				c0.42-0.08,0.85,0.23,0.89,0.65l30.5,183.53c0.08,0.42-0.23,0.85-0.65,0.89C749.68,637.72,749.6,637.72,749.49,637.69z"/>
		</g>
		<g>
			<path class="st12" d="M749.49,637.69c-0.39-0.08-0.69-0.46-0.62-0.85l15.21-129.53c0.04-0.42,0.42-0.73,0.89-0.69
				c0.42,0.04,0.73,0.42,0.69,0.89l-15.21,129.53c-0.04,0.42-0.42,0.73-0.89,0.69C749.53,637.69,749.53,637.69,749.49,637.69z"/>
		</g>
		<g>
			<path class="st12" d="M777.99,645.31c-0.15-0.04-0.27-0.08-0.39-0.19c-0.31-0.27-0.35-0.77-0.08-1.12l89.01-99.95
				c0.27-0.31,0.77-0.35,1.12-0.08c0.31,0.27,0.35,0.77,0.08,1.12l-89.01,99.95C778.53,645.27,778.26,645.35,777.99,645.31z"/>
		</g>
		<g>
			<path class="st12" d="M777.99,645.31c-0.19-0.04-0.39-0.15-0.5-0.31c-0.23-0.35-0.15-0.85,0.19-1.08l156.37-109.46
				c0.35-0.23,0.85-0.15,1.08,0.19c0.23,0.35,0.15,0.85-0.19,1.08L778.57,645.2C778.41,645.31,778.18,645.35,777.99,645.31z"/>
		</g>
	</g>
</g>
<g>
	<g>
		<g>
			<g class="st5">
				<g>
					<polygon class="st6" points="1103.03,598.4 1077.3,653.01 1019.56,639.77 1045.29,585.19 					"/>
				</g>
				<g>
					<polygon class="st7" points="1019.56,639.77 997.03,598.09 1022.8,543.51 1045.29,585.19 					"/>
				</g>
				<g>
					<polygon class="st8" points="1045.29,585.19 1022.8,543.51 1080.49,556.72 1103.03,598.4 					"/>
				</g>
			</g>
		</g>
		<g>
			<polygon class="st9" points="1083.11,593.97 1057.35,648.55 1043.21,645.04 1068.94,590.46 			"/>
		</g>
		<g>
			<polygon class="st9" points="1009.82,622.2 1004.77,612.57 1030.5,558 1035.59,567.62 			"/>
		</g>
		<g>
			<polygon class="st10" points="1035.89,568.32 1030.42,558.27 1088.16,571.48 1093.63,581.57 			"/>
		</g>
		<g>
			<polygon class="st10" points="1069.21,590.39 1046.68,548.67 1060.35,552.1 1082.88,593.78 			"/>
		</g>
	</g>
	<g>
		<g>
			<path class="st11" d="M1126.33,435.78c-34.59-14.79-70.25-8.9-79.69,13.17c-0.62,1.46-1.12,2.97-1.5,4.51
				c14.87-18.6,39.29-27.42,62.78-22.19c3.77,0.85,7.51,2.04,11.21,3.62c1.62,0.69,3.2,1.46,4.74,2.27
				c1.66,0.54,3.27,1.16,4.89,1.85c3.85,1.66,7.43,3.62,10.78,5.89c21.65,14.75,31.97,41.71,25.57,67.25
				c2.89-2.73,5.16-5.97,6.74-9.63C1181.29,480.46,1160.92,450.57,1126.33,435.78z"/>
			<path class="st10" d="M1123.86,437.13c-1.54-0.81-3.12-1.58-4.74-2.27c-3.7-1.58-7.43-2.77-11.21-3.62
				c2.31,1.04,4.54,2.23,6.66,3.54C1117.74,435.32,1120.82,436.09,1123.86,437.13z"/>
			<path class="st10" d="M1139.54,444.87c-3.31-2.27-6.93-4.28-10.78-5.89c-1.62-0.69-3.24-1.31-4.89-1.85
				c3.2,1.69,6.2,3.62,8.97,5.78C1135.11,443.41,1137.34,444.1,1139.54,444.87z"/>
			<path class="st11" d="M1132.88,442.91c-2.77-2.16-5.78-4.08-8.97-5.78c0,0,1.69,1.35,3.54,4.74
				C1129.22,442.1,1131.07,442.45,1132.88,442.91z"/>
			<path class="st11" d="M1118.86,437.63c3.2-0.73,5.01-0.5,5.01-0.5c-3.08-1.04-6.16-1.81-9.24-2.31
				C1116.08,435.67,1117.51,436.63,1118.86,437.63z"/>
			<path class="st10" d="M1139.54,444.87c-2.2-0.81-4.43-1.46-6.66-2c22.22,17.1,30.97,47.64,19.41,74.64c-0.42,1-0.89,2-1.39,3
				c5.58-1.96,10.4-4.78,14.21-8.4C1171.51,486.59,1161.19,459.63,1139.54,444.87z"/>
			<path class="st11" d="M1132.88,442.91c-1.81-0.42-3.66-0.77-5.47-1.04c0.85,1.54,1.73,3.54,2.5,6.05
				c14.87,17.6,19.49,42.79,9.78,65.44c-1.58,3.7-3.47,7.16-5.66,10.4c6.09-0.35,11.79-1.43,16.87-3.2c0.46-0.96,0.92-1.96,1.39-3
				C1163.8,490.55,1155.06,460.01,1132.88,442.91z"/>
			<path class="st10" d="M1114.62,434.78c-2.12-1.31-4.35-2.47-6.66-3.54c-23.53-5.2-47.95,3.58-62.78,22.19
				c-1.39,5.82-0.96,12.06,1.08,18.33C1058.04,444.64,1086.66,429.97,1114.62,434.78z"/>
			<path class="st11" d="M1108.88,441.91c4.04-2.46,7.43-3.7,9.98-4.28c-1.39-1-2.77-1.93-4.24-2.85
				c-27.96-4.81-56.58,9.86-68.37,36.98c2.04,6.28,5.66,12.56,10.67,18.53c0.85-3.66,2-7.32,3.54-10.9
				C1069.33,458.62,1088.08,445.11,1108.88,441.91z"/>
			<path class="st11" d="M1129.91,447.88c3.54,11.59,4.47,34.05-12.63,74.03c-0.12,0.31-0.27,0.58-0.39,0.89
				c5.93,0.92,11.71,1.19,17.14,0.89c2.16-3.24,4.08-6.7,5.66-10.4C1149.36,490.67,1144.78,465.48,1129.91,447.88z"/>
			<path class="st11" d="M1060.47,479.38c-1.54,3.58-2.7,7.24-3.54,10.9c2.97,3.54,6.36,6.93,10.21,10.13
				c15.56-36.4,30.93-51.92,41.75-58.54C1088.08,445.11,1069.33,458.62,1060.47,479.38z"/>
			<path class="st10" d="M1122.48,440.45l1.43-3.31c0,0-1.81-0.23-5.01,0.5C1120.09,438.52,1121.32,439.44,1122.48,440.45z"/>
			<path class="st10" d="M1118.86,437.63c-2.54,0.58-5.93,1.81-9.98,4.28c4.35-0.65,8.78-0.89,13.21-0.62l0.39-0.85
				C1121.32,439.44,1120.09,438.52,1118.86,437.63z"/>
			<path class="st10" d="M1122.09,441.29c-4.47-0.27-8.9-0.04-13.21,0.62c-10.82,6.62-26.19,22.15-41.75,58.54
				c6.66,5.58,14.56,10.55,23.46,14.52L1122.09,441.29z"/>
			<path class="st10" d="M1123.59,441.41c1.27,0.12,2.54,0.27,3.81,0.42c-1.85-3.39-3.54-4.74-3.54-4.74l-1.43,3.31
				C1122.82,440.75,1123.21,441.06,1123.59,441.41z"/>
			<path class="st10" d="M1129.91,447.88c-0.77-2.5-1.66-4.47-2.5-6.05c-1.27-0.19-2.54-0.35-3.81-0.42
				C1125.87,443.41,1127.95,445.57,1129.91,447.88z"/>
			<path class="st10" d="M1122.09,441.29c0.5,0.04,1,0.08,1.5,0.12c-0.39-0.31-0.73-0.65-1.12-0.96L1122.09,441.29z"/>
			<path class="st10" d="M1129.91,447.88c-1.93-2.31-4.04-4.47-6.32-6.47c-0.5-0.04-1-0.08-1.5-0.12l-31.51,73.68
				c0.54,0.23,1.04,0.46,1.58,0.69c8.32,3.54,16.68,5.89,24.73,7.13c0.12-0.31,0.27-0.58,0.39-0.89
				C1134.38,481.93,1133.45,459.47,1129.91,447.88z"/>
		</g>
		<g>
			<path class="st12" d="M1054.65,565.01c-0.15-0.04-0.27-0.19-0.31-0.35l-8.51-92.86c-0.04-0.23,0.15-0.42,0.35-0.42
				c0.23-0.04,0.42,0.15,0.42,0.35l8.51,92.86c0.04,0.23-0.15,0.42-0.35,0.42C1054.77,565.04,1054.73,565.01,1054.65,565.01z"/>
		</g>
		<g>
			<path class="st12" d="M1054.65,565.01c-0.19-0.04-0.31-0.23-0.27-0.46l12.36-64.17c0.04-0.23,0.23-0.35,0.46-0.31
				c0.23,0.04,0.35,0.23,0.31,0.46l-12.36,64.17C1055.11,564.93,1054.92,565.04,1054.65,565.01
				C1054.69,565.01,1054.69,565.01,1054.65,565.01z"/>
		</g>
		<g>
			<path class="st12" d="M1068.63,569.86c-0.08,0-0.12-0.04-0.19-0.12c-0.15-0.15-0.15-0.39,0-0.54l48.14-46.68
				c0.15-0.15,0.39-0.15,0.54,0c0.15,0.15,0.15,0.39,0,0.54l-48.14,46.68C1068.9,569.86,1068.75,569.9,1068.63,569.86z"/>
		</g>
		<g>
			<path class="st12" d="M1068.63,569.86c-0.08-0.04-0.19-0.08-0.23-0.19c-0.12-0.19-0.04-0.42,0.15-0.54l82.19-48.99
				c0.19-0.12,0.42-0.04,0.54,0.15s0.04,0.42-0.15,0.54l-82.19,48.99C1068.82,569.9,1068.71,569.9,1068.63,569.86z"/>
		</g>
	</g>
</g>
</svg>
