<?xml version="1.0" encoding="utf-8"?>
<!-- Generator: Adobe Illustrator 24.2.0, SVG Export Plug-In . SVG Version: 6.00 Build 0)  -->
<svg version="1.1" id="Layer_1" xmlns="http://www.w3.org/2000/svg" xmlns:xlink="http://www.w3.org/1999/xlink" x="0px" y="0px"
	 viewBox="0 0 1200 1200" style="enable-background:new 0 0 1200 1200;" xml:space="preserve">
<style type="text/css">
	.st0{clip-path:url(#SVGID_2_);fill:#EBEBEB;}
	.st1{clip-path:url(#SVGID_4_);}
	.st2{fill:#843189;}
	.st3{fill:#FFE39A;}
	.st4{fill:#C27C00;}
	.st5{fill:#FFB049;}
	.st6{fill:#7E7070;}
	.st7{fill:#AA3CBA;}
	.st8{clip-path:url(#SVGID_6_);}
	.st9{fill:#FFFFFF;}
	.st10{fill:#B5D8FE;}
	.st11{fill:#E7F5FE;}
</style>
<g>
	<g>
		<defs>
			<circle id="SVGID_1_" cx="597.64" cy="630.72" r="545.81"/>
		</defs>
		<clipPath id="SVGID_2_">
			<use xlink:href="#SVGID_1_"  style="overflow:visible;"/>
		</clipPath>
		<circle class="st0" cx="599.73" cy="630.72" r="545.81"/>
	</g>
	<g>
		<defs>
			<circle id="SVGID_3_" cx="597.64" cy="630.72" r="545.81"/>
		</defs>
		<clipPath id="SVGID_4_">
			<use xlink:href="#SVGID_3_"  style="overflow:visible;"/>
		</clipPath>
		<g class="st1">
			<g>
				<g>
					<path class="st2" d="M864.13,992.77c0-24.2-11.47-46.95-30.89-61.39c-50.57-37.62-172.46-105.82-430.62-152
						c-37.48-6.7-67.27,17.41-67.27,55.48l0,0c4.98,24.62,23.21,44.46,47.34,51.49c86.06,25.07,296.47,94.2,450.11,209.35
						C856.36,1062.54,864.13,1016.96,864.13,992.77L864.13,992.77z"/>
				</g>
				<g>
					<path class="st2" d="M855.47,468.63c0-24.2-11.47-46.95-30.89-61.39c-50.57-37.62-172.46-105.82-430.62-152
						c-13.34-2.38-41.12-4.26-50.62,3.75c-5.51,4.64-8.56,12.52-10.24,20.3c-2.52,11.64-2.12,23.72,0.82,35.25
						c8.31,32.45,18.45,41.37,40.08,47.68c74.45,21.7,241.95,76.36,385.25,165.25c40.05,24.85,92.34-1.45,95.79-48.47
						C855.34,475.22,855.47,471.76,855.47,468.63L855.47,468.63z"/>
				</g>
			</g>
			<g>
				<g>
					<g>
						<rect x="514.21" y="964.07" class="st3" width="58.98" height="86.18"/>
					</g>
				</g>
				<g>
					<g>
						<rect x="719.45" y="667.77" class="st4" width="107.48" height="296.36"/>
						<rect x="417.71" y="667.77" class="st5" width="301.74" height="296.36"/>
						<rect x="532.11" y="667.76" class="st3" width="58.98" height="86.18"/>
					</g>
					<polygon class="st6" points="809.03,964.08 417.71,964.08 469.82,967.87 703.08,967.87 809.03,974.98 					"/>
					<g>
						<path class="st4" d="M601.84,939.68h-61.08c-6.92,0-12.52-5.6-12.52-12.52v-12.57c0-6.92,5.6-12.52,12.52-12.52h61.08
							c6.92,0,12.52,5.6,12.52,12.52v12.57C614.36,934.07,608.74,939.68,601.84,939.68z"/>
						<path class="st5" d="M601.84,932.99h-61.35c-8.06,0-12.27-19.13-12.27-19.13c0-6.92,5.6-12.52,12.52-12.52h61.08
							c6.92,0,12.52,5.6,12.52,12.52v6.61C614.36,927.39,608.74,932.99,601.84,932.99z"/>
					</g>
				</g>
				<g>
					<g>
						<g>
							<rect x="699.66" y="371.52" class="st4" width="107.48" height="296.36"/>
							<rect x="397.92" y="371.52" class="st5" width="301.74" height="296.36"/>
							<rect x="512.32" y="371.52" class="st3" width="58.98" height="86.18"/>
						</g>
						<polygon class="st6" points="807.14,667.88 397.92,667.83 450.02,671.62 683.29,671.62 797.98,677.32 						"/>
					</g>
					<g>
						<path class="st4" d="M592.13,630.72h-61.08c-6.92,0-12.52-5.6-12.52-12.52v-12.57c0-6.92,5.6-12.52,12.52-12.52h61.08
							c6.92,0,12.52,5.6,12.52,12.52v12.57C604.65,625.1,599.05,630.72,592.13,630.72z"/>
						<path class="st5" d="M592.13,624.02H530.8c-8.06,0-12.27-19.13-12.27-19.13c0-6.92,5.6-12.52,12.52-12.52h61.08
							c6.92,0,12.52,5.6,12.52,12.52v6.61C604.65,618.42,599.05,624.02,592.13,624.02z"/>
					</g>
				</g>
				<g>
					<g>
						<g>
							<rect x="713.87" y="74.11" class="st4" width="107.48" height="296.36"/>
							<rect x="412.12" y="74.11" class="st5" width="301.74" height="296.36"/>
							<rect x="526.52" y="74.11" class="st3" width="58.98" height="86.18"/>
						</g>
						<polygon class="st6" points="807.14,371.52 412.12,371.55 464.24,375.34 697.49,375.34 807.14,382.76 						"/>
					</g>
					<g>
						<path class="st4" d="M592.13,331.27h-61.08c-6.92,0-12.52-5.6-12.52-12.52v-12.57c0-6.92,5.6-12.52,12.52-12.52h61.08
							c6.92,0,12.52,5.6,12.52,12.52v12.57C604.65,325.67,599.05,331.27,592.13,331.27z"/>
						<path class="st5" d="M592.13,324.58H530.8c-8.06,0-12.27-19.13-12.27-19.13c0-6.92,5.6-12.52,12.52-12.52h61.08
							c6.92,0,12.52,5.6,12.52,12.52v6.61C604.65,318.98,599.05,324.58,592.13,324.58z"/>
					</g>
				</g>
			</g>
			<g>
				<g>
					<path class="st7" d="M366.61,211.3c-22.95,22.25-35.45,53.11-35.45,85.07c0,34.03,19.17,53.31,19.17,53.31
						s45.25-81.43,240.21-193.06c-15.34-24.67-31.35-48.98-47.22-73.39C452.76,135.81,397.87,180.98,366.61,211.3z"/>
					<polygon class="st7" points="601.84,213.95 500.44,50.09 718.82,17.81 					"/>
				</g>
				<path class="st7" d="M854.4,482.17c-3.03,26.9-18.73,69.66-84.16,100.37c-39.74,18.65-93.16,41.94-156.88,77.07
					C399.06,777.77,350.33,865.5,350.33,865.5s-19.17-19.28-19.17-53.31c0-31.97,12.5-62.82,35.45-85.07
					c40.48-39.25,120.55-103.39,266.35-176.28c113.92-56.95,188.18-96.46,216.67-111.81C849.62,439.02,857.25,456.84,854.4,482.17z"
					/>
			</g>
		</g>
	</g>
	<g>
		<defs>
			<circle id="SVGID_5_" cx="597.64" cy="630.72" r="545.81"/>
		</defs>
		<clipPath id="SVGID_6_">
			<use xlink:href="#SVGID_5_"  style="overflow:visible;"/>
		</clipPath>
		<g class="st8">
			<path class="st9" d="M-96.85,1119.33c7.04,0.06,13.79,1.35,20.06,3.61c5.82-31.65,33.69-55.51,66.98-55.2
				c13.99,0.12,26.94,4.5,37.65,11.9c0-0.68-0.03-1.35-0.03-2.03c0.53-57.23,47.34-103.18,104.57-102.65c5,0.05,9.9,0.46,14.7,1.19
				c6.5-75.03,79.98-133.71,169.15-132.89c92.96,0.87,167.72,66.08,166.98,145.66c-0.02,2.31-0.12,4.61-0.26,6.9
				c18.4-14.33,44.54-23.15,73.46-22.89c32.41,0.29,61.08,11.95,79.2,29.74c14.18-14.1,33.75-22.75,55.31-22.55
				c22.61,0.22,42.87,10.11,56.87,25.69c-0.05-7.64,0.91-15.27,2.97-22.81c16.44-60.28,96.65-90.92,179.15-68.42
				c70.83,19.31,120.28,71.53,122.44,124.07c17.84-12.8,39.76-20.27,63.4-20.06c57.65,0.54,104.23,46.49,106.12,103.58
				c12.5-11.78,29.39-18.94,47.93-18.77c26.15,0.25,48.78,15,60.29,36.54c5.08-9.5,8.03-20.3,8.12-31.82
				c0.36-38.15-30.29-69.36-68.43-69.72c-18.54-0.17-35.42,6.99-47.93,18.77c-1.89-57.07-48.47-103.04-106.12-103.58
				c-23.65-0.22-45.56,7.26-63.4,20.06c-2.17-52.54-51.61-104.74-122.44-124.07c-82.5-22.5-162.69,8.14-179.15,68.42
				c-2.06,7.54-3.02,15.17-2.97,22.81c-14.01-15.6-34.26-25.49-56.87-25.69c-21.57-0.2-41.15,8.45-55.31,22.55
				c-18.12-17.8-46.8-29.45-79.2-29.74c-28.94-0.26-55.06,8.57-73.46,22.89c0.15-2.29,0.25-4.58,0.26-6.9
				c0.74-79.59-74.02-144.81-166.98-145.66c-89.15-0.82-162.63,57.86-169.15,132.89c-4.8-0.73-9.7-1.15-14.7-1.19
				c-57.23-0.53-104.04,45.42-104.57,102.65c0,0.68,0.03,1.35,0.03,2.03c-10.71-7.4-23.66-11.76-37.65-11.9
				c-33.29-0.31-61.14,23.54-66.98,55.2c-6.27-2.26-13.01-3.53-20.06-3.61c-33.55-0.31-60.99,26.63-61.3,60.17
				c-0.11,12.15,3.37,23.49,9.44,33.06C-137.85,1130.43-118.64,1119.13-96.85,1119.33z"/>
			<path class="st10" d="M1083.58,1134.68c38.18,3.61,55.71-13.42,55.71-13.42c-71.19,13.93-149.08-36.1-149.08-36.1
				c21.16,33.01,70.68,43.84,70.68,43.84c-118.65,100.08-285.26-35.59-285.26-35.59c40.24-8.51,55.2-39.73,55.2-39.73
				c-30.95,46.43-185.71,16.51-185.71,16.51c27.86,26.82,87.17,23.21,87.17,23.21c-97.5,131.54-305.91-31.46-305.91-31.46
				c39.2-15.48,33.01-39.2,33.01-39.2c-33.01,54.68-203.24,16.51-203.24,16.51c37.14,28.89,126.9,22.7,126.9,22.7
				c-19.61,107.29-216.66,63.45-216.66,63.45c22.18-8.77,33.01-55.2,33.01-55.2C168.46,1130.06,56,1110.45,56,1110.45
				c34.05,23.72,75.32,24.76,75.32,24.76c-7.18,17.13-20.55,30.41-36.96,40.72l1029.96,0.57
				C1091.89,1158.02,1083.58,1134.68,1083.58,1134.68z"/>
			<path class="st11" d="M1269.78,1103.41c-18.54-0.17-35.42,6.99-47.93,18.77c-1.89-57.07-48.47-103.04-106.12-103.58
				c-23.65-0.22-45.56,7.26-63.4,20.06c-2.17-52.54-51.61-104.74-122.44-124.07c-82.5-22.5-162.69,8.14-179.15,68.42
				c-2.06,7.54-3.02,15.17-2.97,22.81c-14.01-15.6-34.26-25.49-56.87-25.69c-21.57-0.2-41.15,8.45-55.31,22.55
				c-18.12-17.8-46.8-29.45-79.2-29.74c-28.94-0.26-55.06,8.57-73.46,22.89c0.15-2.29,0.25-4.58,0.26-6.9
				c0.74-79.59-74.02-144.81-166.98-145.66c-89.15-0.82-162.63,57.86-169.15,132.89c-4.8-0.73-9.7-1.15-14.7-1.19
				c-57.23-0.53-104.04,45.42-104.57,102.65c0,0.68,0.03,1.35,0.03,2.03c-10.71-7.4-23.66-11.76-37.65-11.9
				c-33.29-0.31-61.14,23.54-66.98,55.2c-6.27-2.26-13.01-3.53-20.06-3.61c-21.79-0.2-40.99,11.1-51.86,28.23
				c0.6,0.96,1.24,1.9,1.89,2.83c10.91,15.23,28.68,25.24,48.84,25.43l46.19,0.03l146.15,0.08c16.4-10.31,29.78-23.58,36.96-40.72
				c0,0-41.27-1.04-75.32-24.76c0,0,112.46,19.61,143.41-40.24c0,0-10.83,46.43-33.01,55.2c0,0,197.05,43.84,216.66-63.45
				c0,0-89.76,6.19-126.9-22.7c0,0,170.23,38.18,203.24-16.51c0,0,6.19,23.72-33.01,39.2c0,0,208.41,163,305.91,31.46
				c0,0-59.32,3.61-87.17-23.21c0,0,154.76,29.91,185.71-16.51c0,0-14.96,31.21-55.2,39.73c0,0,166.63,135.67,285.26,35.59
				c0,0-49.52-10.83-70.68-43.84c0,0,77.89,50.03,149.08,36.1c0,0-17.53,17.02-55.71,13.42c0,0,8.31,23.34,40.75,41.8l81.63,0.05
				l62.55,0.03c25.47,0.23,47.85-13.37,60.01-33.78c0.56-0.93,1.05-1.89,1.56-2.83C1318.54,1118.39,1295.93,1103.64,1269.78,1103.41
				z"/>
		</g>
	</g>
</g>
<g>
	<g>
		<g>
			<path class="st2" d="M793.24,468.72c0-24.2-11.47-46.95-30.89-61.39c-50.57-37.62-110.56-105.82-368.72-152
				c-13.34-2.38-41.12-4.26-50.62,3.75c-5.51,4.64-8.56,12.52-10.24,20.3c-2.52,11.64-2.12,23.72,0.82,35.25
				c8.31,32.45,18.45,41.37,40.08,47.68c74.45,21.7,241.95,76.36,385.25,165.25c40.05,24.85,30.44-1.45,33.89-48.47
				C793.12,475.31,793.24,471.85,793.24,468.72L793.24,468.72z"/>
		</g>
	</g>
	<g>
		<g>
			<g>
				<g>
					<rect x="699.32" y="371.61" class="st4" width="107.48" height="296.36"/>
					<rect x="397.58" y="371.61" class="st5" width="301.74" height="296.36"/>
					<rect x="511.98" y="371.61" class="st3" width="58.98" height="86.18"/>
				</g>
			</g>
			<g>
				<path class="st4" d="M591.81,630.81h-61.08c-6.92,0-12.52-5.6-12.52-12.52v-12.57c0-6.92,5.6-12.52,12.52-12.52h61.08
					c6.92,0,12.52,5.6,12.52,12.52v12.57C604.33,625.2,598.73,630.81,591.81,630.81z"/>
				<path class="st5" d="M591.81,624.11h-61.35c-8.06,0-12.27-19.13-12.27-19.13c0-6.92,5.6-12.52,12.52-12.52h61.08
					c6.92,0,12.52,5.6,12.52,12.52v6.61C604.33,618.51,598.73,624.11,591.81,624.11z"/>
			</g>
		</g>
		<g>
			<g>
				<g>
					<rect x="713.54" y="74.19" class="st4" width="107.48" height="296.36"/>
					<rect x="411.8" y="74.19" class="st5" width="301.74" height="296.36"/>
					<rect x="526.2" y="74.21" class="st3" width="58.98" height="86.18"/>
				</g>
				<polygon class="st6" points="806.8,371.61 411.8,371.64 463.9,375.44 697.15,375.44 806.8,382.85 				"/>
			</g>
			<g>
				<path class="st4" d="M591.81,331.36h-61.08c-6.92,0-12.52-5.6-12.52-12.52v-12.57c0-6.92,5.6-12.52,12.52-12.52h61.08
					c6.92,0,12.52,5.6,12.52,12.52v12.57C604.33,325.76,598.73,331.36,591.81,331.36z"/>
				<path class="st5" d="M591.81,324.68h-61.35c-8.06,0-12.27-19.13-12.27-19.13c0-6.92,5.6-12.52,12.52-12.52h61.08
					c6.92,0,12.52,5.6,12.52,12.52v6.61C604.33,319.07,598.73,324.68,591.81,324.68z"/>
			</g>
		</g>
	</g>
	<g>
		<g>
			<path class="st7" d="M366.27,211.39c-22.95,22.25-35.45,53.11-35.45,85.07c0,34.03,19.17,53.31,19.17,53.31
				s45.25-81.43,240.21-193.06c-15.34-24.67-31.35-48.98-47.22-73.39C452.44,135.9,397.53,181.08,366.27,211.39z"/>
			<polygon class="st7" points="601.51,214.04 500.1,50.17 718.49,17.9 			"/>
		</g>
	</g>
</g>
<path class="st7" d="M363.71,730.01c24.27-23.52,62.75-57.71,121.11-95.65c38.98-25.35,86.85-53.14,145.24-82.35
	c113.92-56.95,188.18-96.46,216.67-111.81c0,0,7.63,17.81,4.78,43.15c-3.03,26.9-18.73,69.66-84.16,100.37
	c-39.74,18.65-93.16,41.94-156.88,77.07c-28.23,15.57-53.59,30.6-76.34,44.97"/>
</svg>
